<?xml version="1.0" standalone="no"?>
<!DOCTYPE svg PUBLIC "-//W3C//DTD SVG 20010904//EN"
 "http://www.w3.org/TR/2001/REC-SVG-20010904/DTD/svg10.dtd">
<svg version="1.0" xmlns="http://www.w3.org/2000/svg"
 width="1058.000000pt" height="740.000000pt" viewBox="0 0 1058.000000 740.000000"
 preserveAspectRatio="xMidYMid meet">

<g transform="translate(0.000000,740.000000) scale(0.100000,-0.100000)"
fill="#000000" stroke="none">
<path d="M4683 6840 c-108 -23 -151 -69 -198 -210 -39 -116 -122 -222 -192
-244 -35 -11 -27 7 24 52 25 23 44 45 41 48 -15 15 -358 -132 -522 -223 -110
-61 -316 -194 -316 -204 0 -4 15 -10 33 -15 31 -8 30 -8 -18 -12 -27 -2 -104
1 -170 8 -259 24 -319 -14 -491 -309 -27 -46 -78 -116 -114 -155 -143 -156
-153 -172 -243 -406 -113 -295 -123 -339 -88 -415 10 -22 57 -87 104 -144 48
-58 87 -111 87 -118 0 -26 -25 -12 -76 42 l-51 56 -19 -71 -18 -70 -83 0 -83
0 -2 -397 -3 -398 -107 -3 -108 -3 -1 178 0 178 -145 -287 -144 -288 -98 0
-97 0 -150 289 -150 290 -5 -312 -5 -312 -107 -3 -108 -3 0 536 0 535 -275 0
-275 0 0 -750 0 -750 914 0 913 0 7 -61 c3 -34 6 -101 6 -148 0 -343 62 -423
434 -561 77 -28 148 -56 158 -61 27 -15 22 -29 -12 -29 -16 0 -30 -3 -30 -6 0
-16 158 -220 242 -311 130 -143 175 -174 133 -93 -18 34 -5 48 19 21 25 -28
46 -106 46 -171 l0 -58 48 -20 c126 -54 371 -105 567 -118 138 -9 253 8 413
62 190 63 212 62 394 -22 410 -188 811 -251 1200 -188 209 34 319 83 427 193
129 129 169 224 182 430 11 192 24 220 129 276 89 48 110 76 146 194 35 114
56 154 118 219 61 65 120 106 281 197 148 83 254 161 291 214 l29 41 1253 0
1252 0 0 750 0 750 -501 0 c-473 0 -501 -1 -496 -17 2 -10 93 -244 201 -521
108 -277 196 -510 196 -518 0 -12 -19 -14 -107 -12 l-108 3 -110 312 c-60 172
-113 309 -116 305 -6 -6 -128 -348 -201 -564 l-20 -58 -109 0 c-63 0 -109 4
-109 10 0 5 90 242 200 526 110 284 200 520 200 525 0 5 -102 9 -230 9 l-230
0 -2 -397 -3 -398 -107 -3 -108 -3 -1 178 0 178 -145 -287 -144 -288 -98 0
-97 0 -150 289 -150 290 -5 -312 -5 -312 -107 -3 -108 -3 0 566 0 565 104 0
c71 0 107 -4 113 -12 5 -7 96 -191 202 -408 106 -217 196 -398 200 -403 5 -5
326 665 358 750 4 10 -42 13 -241 13 l-246 0 0 66 c0 191 -42 466 -106 699
-32 115 -47 152 -84 206 -188 277 -531 596 -832 776 -102 60 -317 172 -371
193 l-29 10 22 -35 c34 -55 18 -52 -35 7 -30 34 -69 98 -110 183 -34 71 -73
140 -86 152 -65 60 -147 75 -514 93 -121 6 -290 17 -375 25 -196 19 -532 27
-587 15z m97 -106 l70 -25 128 22 c101 18 167 23 322 23 217 1 338 -14 540
-65 97 -24 127 -28 157 -20 80 19 103 21 103 7 0 -28 -141 -74 -310 -100 -300
-48 -607 -22 -895 75 -127 43 -196 76 -203 97 -5 17 8 15 88 -14z m90 -249
c63 -18 130 -36 148 -40 17 -3 32 -11 32 -16 0 -16 -56 -10 -175 21 -119 31
-175 53 -175 70 0 12 13 9 170 -35z m-36 -69 c134 -34 155 -54 43 -41 -81 9
-206 50 -243 81 l-29 24 50 -16 c28 -8 108 -30 179 -48z m977 -145 c37 -37 38
-79 3 -120 -31 -38 -78 -41 -118 -10 -21 16 -26 29 -26 63 0 91 79 129 141 67z
m-589 -24 c45 -26 89 -80 128 -157 32 -63 109 -254 104 -259 -6 -7 -7 -5 -92
164 -94 188 -133 233 -229 261 -45 13 -53 19 -38 24 27 10 77 -3 127 -33z
m-48 -98 c62 -42 90 -85 191 -296 95 -199 101 -231 65 -323 -51 -130 -224
-328 -350 -402 -35 -21 -66 -35 -69 -32 -3 3 15 22 39 42 214 174 360 370 360
484 0 38 -16 80 -94 240 -83 170 -100 199 -148 243 -30 28 -63 55 -73 62 -19
11 -18 12 6 12 14 1 47 -13 73 -30z m-173 -91 c132 -45 239 -220 256 -419 13
-150 -89 -319 -293 -488 -206 -171 -357 -228 -445 -168 -41 28 -109 152 -145
265 -40 124 -33 166 56 357 106 226 176 326 278 397 88 61 211 84 293 56z
m-1768 -128 c59 -47 42 -127 -74 -358 -107 -215 -252 -394 -487 -604 -170
-153 -200 -175 -215 -159 -9 10 1 25 49 69 46 43 64 68 73 102 23 79 80 185
142 261 114 140 150 193 205 299 61 120 109 175 227 264 42 32 77 62 77 66 0
17 -43 60 -61 60 -10 0 -19 5 -19 10 0 18 56 11 83 -10z m3362 6 c59 -25 86
-121 48 -176 -23 -34 -33 -40 -69 -40 -50 0 -94 60 -94 127 0 42 11 61 50 87
29 19 23 19 65 2z m-3058 -135 c-9 -149 -73 -311 -169 -432 -49 -62 -62 -57
-20 8 83 129 134 265 172 456 6 31 14 57 17 57 3 0 3 -40 0 -89z m-111 13
c-18 -177 -131 -417 -292 -619 -80 -100 -144 -172 -144 -162 0 4 56 91 125
192 175 259 267 451 290 608 11 74 29 58 21 -19z m1014 -38 c-6 -19 -36 -77
-67 -128 -99 -164 -108 -188 -107 -308 0 -125 23 -239 66 -328 32 -64 32 -86
2 -61 -21 17 -67 118 -82 179 -24 98 -33 219 -22 283 15 83 38 132 120 257 38
58 74 118 81 134 17 37 24 16 9 -28z m2612 -7 c63 -32 180 -114 214 -150 34
-37 22 -32 -61 26 -33 23 -102 68 -152 99 -51 32 -93 60 -93 62 0 5 43 -12 92
-37z m-2 -76 c75 -40 174 -112 166 -120 -3 -3 -36 12 -73 34 -37 22 -112 64
-165 92 -54 29 -98 54 -98 56 0 10 113 -31 170 -62z m-2810 -59 c0 -4 -13 -34
-30 -68 -52 -106 -57 -173 -35 -459 l5 -62 -22 45 c-21 41 -23 58 -23 215 1
183 8 217 61 298 21 33 44 49 44 31z m1979 -198 c12 -25 11 -31 -6 -54 -27
-37 -63 -46 -107 -28 -43 18 -57 56 -35 95 28 50 121 42 148 -13z m581 -17
c43 -14 97 -22 161 -24 52 -1 105 -8 118 -14 43 -23 159 -235 207 -377 38
-115 22 -166 -91 -294 -26 -30 -59 -79 -73 -109 -23 -50 -26 -53 -34 -32 -12
34 19 96 87 171 125 141 125 187 -5 438 -93 180 -88 175 -211 183 -106 7 -218
40 -227 67 -5 15 -9 16 68 -9z m-3140 -127 c23 -23 29 -41 35 -93 11 -108 -25
-164 -115 -176 -31 -4 -45 -1 -61 13 -19 17 -21 27 -16 94 6 91 28 150 65 173
38 24 59 21 92 -11z m3373 4 c45 -18 94 -78 134 -163 28 -57 36 -89 40 -153 5
-68 3 -83 -12 -100 -24 -27 -47 -25 -83 5 -44 37 -86 108 -126 211 -70 181
-55 243 47 200z m542 -43 c57 -57 29 -143 -46 -143 -41 0 -83 54 -75 98 3 19
10 40 17 48 16 19 84 18 104 -3z m-1719 -194 c41 -25 52 -70 35 -143 -15 -67
-46 -111 -98 -138 l-42 -22 -48 20 c-58 24 -62 38 -38 135 21 84 49 128 95
151 45 23 55 22 96 -3z m500 -299 c26 -134 26 -139 0 -84 -40 84 -57 220 -39
305 6 28 9 20 15 -51 5 -47 15 -123 24 -170z m79 -48 c-6 -6 -42 103 -49 149
-4 25 -3 54 1 64 4 13 14 -19 29 -95 13 -63 21 -116 19 -118z m-3573 125 c44
-34 88 -90 88 -113 0 -8 -24 10 -52 39 -29 29 -69 65 -88 79 -31 24 -32 27
-13 28 12 0 41 -15 65 -33z m4066 -25 c-14 -15 -40 -51 -58 -79 -17 -29 -34
-53 -36 -53 -2 0 -4 15 -4 34 0 39 35 87 84 117 40 24 46 16 14 -19z m-4159
-46 c15 -22 33 -56 39 -75 15 -42 16 -148 2 -156 -6 -4 -10 8 -10 28 0 48 -27
133 -61 193 -16 28 -29 54 -29 57 0 17 34 -10 59 -47z m4226 -12 c-18 -30 -37
-74 -40 -97 -10 -61 -22 -78 -30 -45 -9 37 18 115 56 161 45 55 52 45 14 -19z
m-2972 -1 c27 -31 26 -94 -3 -123 -44 -44 -120 -8 -120 57 0 64 84 109 123 66z
m953 -58 c34 -53 -14 -192 -75 -218 l-28 -12 237 -338 c130 -186 242 -343 248
-349 9 -9 12 75 12 360 l0 372 105 0 105 0 0 -565 0 -566 -107 3 -108 3 -257
369 -258 369 0 -236 0 -237 -110 0 -110 0 2 428 3 427 96 3 95 3 -4 30 c-6 41
16 116 46 150 32 39 84 40 108 4z m-1581 -45 c54 -23 170 -102 235 -159 69
-61 19 -54 -58 8 -33 27 -99 74 -146 105 -107 69 -115 82 -31 46z m-16 -115
c26 -13 62 -37 81 -54 l35 -30 -26 -1 c-15 0 -37 8 -50 19 -74 57 -171 78
-217 45 -19 -13 -22 -13 -22 -1 0 32 64 59 119 51 19 -3 55 -16 80 -29z m-373
-36 c196 -35 355 -188 409 -394 21 -80 21 -236 0 -317 -78 -301 -363 -467
-669 -388 -102 26 -167 62 -237 133 -253 252 -194 746 108 910 108 58 258 80
389 56z m1157 -4 c190 -40 340 -187 393 -385 21 -79 24 -233 5 -310 -50 -208
-203 -364 -398 -405 -257 -55 -497 53 -603 269 -88 179 -91 380 -8 556 39 82
150 195 229 234 109 53 254 68 382 41z m1968 -17 c108 -49 179 -141 195 -250
l6 -48 -105 0 -104 0 -7 31 c-20 99 -165 128 -241 49 -26 -27 -30 -39 -30 -85
0 -48 4 -58 32 -87 28 -28 42 -33 124 -44 213 -29 329 -147 329 -334 0 -98
-24 -156 -94 -226 -53 -52 -73 -65 -130 -83 -38 -12 -81 -21 -97 -21 l-29 0 0
100 0 100 28 6 c100 24 142 110 92 191 -26 43 -65 62 -155 73 -135 17 -242 87
-288 189 -31 66 -31 197 0 264 43 92 114 156 211 188 80 27 188 21 263 -13z
m901 -509 c115 -294 211 -547 215 -562 l6 -28 -109 3 -109 3 -110 312 c-60
172 -113 309 -116 305 -6 -6 -128 -348 -201 -564 l-20 -58 -109 0 c-62 0 -109
4 -109 10 0 5 92 247 204 537 113 290 209 541 215 556 6 16 17 27 23 25 7 -3
106 -245 220 -539z m-2541 501 l24 -19 -69 -1 c-68 0 -69 0 -51 20 23 25 66
26 96 0z m-1868 -1608 c9 -141 -16 -373 -49 -451 -20 -48 -35 -28 -23 32 7 42
5 55 -15 95 -37 75 -126 358 -126 403 0 5 47 9 104 9 l103 0 6 -88z m1157 77
c98 -15 200 -53 355 -129 306 -149 384 -230 480 -495 19 -53 35 -113 35 -134
0 -90 -114 -237 -222 -287 -83 -37 -174 -38 -353 -1 -149 30 -248 43 -390 52
-207 13 -253 45 -348 240 -31 63 -79 145 -106 180 -75 98 -76 125 -3 270 76
153 120 202 226 255 112 55 204 69 326 49z m554 -19 c158 -51 245 -124 316
-266 46 -95 160 -501 121 -434 -5 8 -32 83 -61 165 -70 201 -119 301 -181 370
-66 72 -130 104 -299 150 -74 20 -136 38 -139 41 -2 2 30 4 72 4 58 0 100 -7
171 -30z m284 -14 c53 -50 103 -128 137 -213 45 -115 34 -116 -26 -1 -59 113
-128 201 -189 241 l-25 16 28 0 c20 1 42 -12 75 -43z m528 -22 c28 -41 49 -91
68 -158 14 -54 35 -115 46 -135 18 -37 75 -94 102 -103 30 -11 -4 -19 -36 -8
-56 18 -101 77 -130 170 -14 44 -26 86 -26 93 0 24 -52 122 -87 165 l-36 44
29 -4 c23 -2 38 -16 70 -64z m349 19 c19 -127 93 -233 206 -293 l62 -33 46 23
c25 12 104 57 176 99 361 215 433 252 477 249 40 -3 33 -8 -268 -180 -170 -97
-334 -188 -364 -202 -73 -34 -128 -33 -243 4 -154 49 -202 96 -283 275 -24 54
-44 100 -44 102 0 1 51 3 114 3 l114 0 7 -47z m1222 2 c-90 -83 -348 -248
-363 -232 -6 6 81 74 186 144 41 28 98 69 125 91 29 24 61 41 75 41 23 0 21
-3 -23 -44z m-3500 -82 c-96 -159 -127 -247 -127 -358 0 -108 21 -153 123
-262 89 -97 117 -138 116 -170 0 -16 -1 -16 -12 2 -7 11 -59 69 -117 130 -58
60 -113 127 -123 147 -59 125 -35 295 62 445 43 66 101 136 108 129 3 -3 -11
-31 -30 -63z m3584 48 c-15 -28 -136 -137 -216 -194 -68 -48 -225 -130 -234
-121 -5 5 -11 1 84 59 107 65 259 173 320 229 57 52 59 53 46 27z m-702 -386
c101 -52 5 -194 -106 -158 -62 21 -62 88 -2 144 35 32 66 36 108 14z m601 -24
c0 -27 -270 -214 -286 -198 -5 5 265 206 279 206 4 1 7 -3 7 -8z m-6 -119 c-6
-4 -26 -19 -45 -34 -39 -31 -131 -78 -150 -78 -8 0 4 12 26 27 70 48 169 103
174 97 3 -3 1 -8 -5 -12z m-1401 -21 c36 -14 42 -33 28 -81 -13 -45 -62 -90
-97 -90 -13 0 -38 13 -56 28 -36 33 -42 75 -14 117 29 44 70 52 139 26z m739
-210 c103 -27 274 -112 314 -157 47 -52 57 -104 52 -252 -7 -160 -27 -219 -97
-285 -56 -53 -100 -76 -196 -107 -99 -32 -326 -39 -485 -16 -354 52 -484 104
-551 220 -61 107 -28 225 100 353 125 126 288 217 459 254 112 24 290 20 404
-10z m-1390 -312 c81 -30 91 -77 24 -119 -62 -38 -107 -20 -166 65 -58 84 -1
105 142 54z m-774 -25 c175 -36 228 -57 282 -113 47 -48 98 -131 82 -131 -5 0
-35 29 -67 65 -32 36 -75 75 -97 86 -22 11 -115 38 -207 59 -92 22 -178 43
-191 49 -52 20 71 11 198 -15z m470 -43 c60 -22 116 -62 133 -92 19 -36 2 -33
-63 9 -77 50 -125 68 -212 77 -63 7 -81 17 -53 29 24 11 143 -3 195 -23z"/>
<path d="M4872 5834 c-69 -34 -112 -87 -178 -216 -30 -59 -80 -140 -109 -180
-30 -40 -60 -91 -67 -113 -7 -22 -12 -93 -12 -158 l-1 -119 29 -25 c25 -22 37
-25 81 -21 164 14 474 269 580 478 21 40 29 75 33 128 l5 73 -64 63 c-72 70
-155 116 -209 116 -20 0 -59 -12 -88 -26z"/>
<path d="M2783 4292 c-95 -34 -161 -103 -199 -207 -27 -75 -25 -222 4 -296 48
-122 151 -198 278 -207 220 -14 365 146 352 390 -7 140 -72 248 -183 306 -67
34 -178 41 -252 14z m158 -258 c37 -19 63 -74 54 -115 -10 -43 -58 -79 -107
-79 -105 0 -137 147 -43 198 28 16 61 15 96 -4z"/>
<path d="M3925 4293 c-124 -45 -203 -155 -219 -308 -9 -77 6 -154 44 -232 54
-110 157 -173 285 -173 128 0 231 63 284 173 97 199 29 443 -146 528 -64 31
-179 36 -248 12z m181 -274 c46 -43 40 -129 -12 -164 -27 -17 -86 -20 -115 -5
-25 14 -49 62 -49 101 0 22 10 41 35 66 32 32 40 35 76 30 23 -3 52 -15 65
-28z"/>
<path d="M3722 2845 c-193 -92 -283 -279 -207 -432 29 -58 62 -86 154 -133 97
-48 120 -69 153 -135 20 -40 53 -81 101 -125 l70 -64 111 -23 c222 -46 313
-29 412 80 55 60 94 131 94 170 0 35 -52 174 -101 267 -71 137 -158 208 -393
320 -155 74 -251 110 -294 110 -15 0 -60 -16 -100 -35z"/>
<path d="M5765 1853 c-86 -7 -193 -36 -265 -71 -138 -68 -262 -220 -264 -324
-1 -40 -1 -41 52 -59 78 -27 367 -70 507 -76 211 -9 375 32 470 119 61 55 81
99 96 206 12 86 11 88 -82 137 -103 54 -332 84 -514 68z"/>
<path d="M1315 4431 c10 -33 366 -753 370 -750 5 5 355 759 355 764 0 3 -165
5 -366 5 -357 0 -365 0 -359 -19z"/>
</g>
</svg>
