<?xml version="1.0" standalone="no"?>
<!DOCTYPE svg PUBLIC "-//W3C//DTD SVG 20010904//EN"
 "http://www.w3.org/TR/2001/REC-SVG-20010904/DTD/svg10.dtd">
<svg version="1.0" xmlns="http://www.w3.org/2000/svg"
 width="1080.000000pt" height="1080.000000pt" viewBox="0 0 1080.000000 1080.000000"
 preserveAspectRatio="xMidYMid meet">

<g transform="translate(0.000000,1080.000000) scale(0.100000,-0.100000)"
fill="#000000" stroke="none">
<path d="M4768 8577 c-103 -30 -149 -80 -203 -224 -15 -40 -34 -81 -43 -92
-10 -10 -47 -28 -84 -39 -244 -77 -589 -253 -810 -413 l-56 -41 -104 11 c-242
24 -351 -36 -492 -274 -73 -123 -99 -158 -197 -262 -43 -45 -90 -105 -105
-134 -34 -68 -178 -452 -194 -518 -16 -69 0 -133 52 -208 l40 -57 -31 -116
c-18 -63 -35 -123 -38 -133 -4 -15 0 -18 18 -15 19 3 26 17 52 116 l30 113 51
-56 c51 -54 76 -68 76 -42 0 7 -39 60 -87 118 -121 146 -139 194 -112 294 16
56 154 417 180 468 25 48 67 103 159 203 36 39 87 109 114 155 172 295 232
333 491 309 66 -7 143 -10 170 -8 48 4 49 4 18 12 -18 5 -33 11 -33 15 1 10
206 143 316 204 169 94 507 238 523 222 3 -4 -15 -25 -41 -47 -52 -43 -62 -64
-25 -52 70 22 153 128 192 244 50 150 92 191 218 212 73 12 340 4 567 -17 85
-8 254 -19 375 -25 367 -18 449 -33 514 -93 13 -12 52 -80 86 -152 41 -87 78
-148 110 -183 53 -59 69 -62 35 -7 l-22 35 29 -10 c54 -21 288 -143 378 -197
304 -185 639 -499 825 -772 37 -54 52 -91 84 -206 72 -260 113 -558 105 -763
l-4 -92 281 0 281 0 -64 277 c-34 152 -72 296 -84 319 -40 83 -106 124 -291
179 -47 14 -91 32 -98 40 -6 7 -42 63 -79 123 -223 358 -529 668 -887 897
-111 72 -374 210 -472 248 -37 15 -47 25 -69 75 -80 180 -88 195 -127 228 -76
66 -200 87 -586 99 -102 4 -237 13 -300 22 -162 21 -570 27 -632 10z"/>
<path d="M4802 8448 c7 -21 76 -54 203 -97 288 -97 595 -123 895 -75 169 26
310 72 310 100 0 14 -23 12 -103 -7 -30 -8 -61 -4 -160 21 -310 77 -601 88
-898 34 -87 -16 -87 -16 -159 10 -80 29 -93 31 -88 14z"/>
<path d="M4810 8220 c0 -17 56 -39 175 -70 119 -31 175 -37 175 -21 0 5 -15
13 -32 16 -18 4 -85 22 -148 40 -157 44 -170 47 -170 35z"/>
<path d="M4744 8156 c37 -31 162 -72 243 -81 112 -13 91 7 -43 41 -71 18 -151
40 -179 48 l-50 16 29 -24z"/>
<path d="M5801 7974 c-32 -40 -29 -106 5 -133 40 -31 87 -28 118 10 35 41 34
83 -3 120 -39 39 -91 40 -120 3z"/>
<path d="M5205 7980 c-15 -5 -7 -11 39 -24 96 -28 139 -77 232 -266 75 -153
115 -213 75 -112 -11 26 -28 71 -40 100 -30 76 -69 151 -105 200 -48 67 -151
120 -201 102z"/>
<path d="M5205 7867 c10 -7 43 -34 73 -62 48 -44 65 -73 148 -243 78 -160 94
-202 94 -240 0 -57 -39 -142 -103 -227 -46 -62 -177 -192 -257 -257 -24 -20
-42 -39 -39 -42 3 -3 34 11 69 32 126 74 299 272 350 402 36 92 30 124 -65
323 -47 99 -99 198 -115 222 -35 51 -113 105 -149 104 -24 0 -25 -1 -6 -12z"/>
<path d="M4913 7751 c-148 -54 -242 -166 -373 -446 -89 -191 -96 -233 -56
-357 36 -113 104 -237 145 -265 88 -60 239 -3 445 168 204 169 306 338 293
488 -16 193 -123 373 -246 417 -52 19 -148 16 -208 -5z m248 -218 c29 -15 82
-55 117 -88 l62 -61 0 -64 c0 -110 -70 -231 -218 -376 -79 -78 -208 -171 -297
-214 -27 -13 -72 -26 -100 -28 -44 -4 -56 -1 -81 21 l-29 25 1 119 c0 65 5
136 12 158 7 22 37 73 67 113 29 40 79 121 109 180 66 129 109 182 178 216 66
33 110 33 179 -1z"/>
<path d="M3260 7640 c0 -5 9 -10 19 -10 18 0 61 -43 61 -60 0 -4 -35 -34 -77
-66 -118 -89 -166 -144 -227 -264 -55 -106 -91 -159 -205 -299 -62 -76 -119
-182 -142 -261 -9 -34 -27 -59 -73 -102 -48 -44 -58 -59 -49 -69 15 -16 45 6
215 159 235 210 380 389 487 604 116 231 133 311 74 358 -27 21 -83 28 -83 10z"/>
<path d="M6640 7634 c-39 -26 -50 -45 -50 -87 0 -67 44 -127 94 -127 36 0 46
6 69 40 38 55 11 151 -48 176 -42 17 -36 17 -65 -2z"/>
<path d="M3630 7533 c-38 -191 -89 -327 -172 -456 -42 -65 -29 -70 20 -8 96
121 160 283 169 432 3 49 3 89 0 89 -3 0 -11 -26 -17 -57z"/>
<path d="M3515 7533 c-23 -157 -115 -349 -290 -608 -69 -101 -125 -188 -125
-192 0 -10 64 62 144 162 161 202 274 442 292 619 8 77 -10 93 -21 19z"/>
<path d="M4542 7505 c-8 -16 -44 -77 -82 -135 -84 -128 -106 -176 -119 -261
-11 -68 -3 -171 20 -274 23 -97 86 -212 106 -192 3 4 -8 35 -25 69 -55 114
-85 313 -63 419 7 34 33 93 67 150 74 127 116 215 112 236 -2 13 -6 10 -16
-12z"/>
<path d="M7070 7506 c0 -2 42 -30 93 -62 50 -31 119 -76 152 -99 83 -58 95
-63 61 -26 -34 36 -151 118 -214 150 -49 25 -92 42 -92 37z"/>
<path d="M6990 7455 c0 -2 44 -27 98 -56 53 -28 128 -70 165 -92 37 -22 70
-37 73 -34 8 8 -91 80 -166 120 -57 31 -170 72 -170 62z"/>
<path d="M4306 7303 c-53 -81 -60 -115 -61 -298 0 -157 2 -174 23 -215 l22
-45 -5 62 c-22 286 -17 353 35 459 33 67 35 74 20 74 -5 0 -21 -17 -34 -37z"/>
<path d="M6225 7181 c-66 -13 -73 -100 -9 -127 44 -18 80 -9 107 28 17 23 18
29 6 54 -17 33 -62 53 -104 45z"/>
<path d="M6842 7128 c9 -27 121 -60 227 -67 123 -8 118 -3 211 -183 130 -251
130 -297 5 -438 -68 -75 -99 -137 -87 -171 8 -21 11 -18 34 32 14 30 47 79 73
109 113 128 129 179 91 294 -47 140 -164 354 -206 376 -12 7 -65 13 -118 15
-64 2 -119 10 -162 24 -77 25 -73 24 -68 9z"/>
<path d="M3678 7003 c-37 -23 -59 -82 -65 -173 -5 -67 -3 -77 16 -94 16 -14
30 -17 61 -13 90 12 126 68 115 176 -6 52 -12 70 -35 93 -33 32 -54 35 -92 11z"/>
<path d="M7059 6989 c-15 -30 -5 -84 37 -193 40 -103 82 -174 126 -211 36 -30
59 -32 83 -5 15 17 17 32 12 100 -11 164 -125 330 -226 330 -11 0 -25 -10 -32
-21z"/>
<path d="M7581 6956 c-7 -8 -14 -29 -17 -48 -8 -44 34 -98 75 -98 75 0 103 86
46 143 -20 21 -88 22 -104 3z"/>
<path d="M5874 6766 c-58 -25 -96 -102 -111 -218 l-6 -48 47 -21 c59 -26 92
-19 139 28 53 52 79 143 61 210 -6 23 -61 63 -85 63 -8 -1 -28 -7 -45 -14z"/>
<path d="M6427 6681 c-18 -85 -1 -221 39 -305 26 -55 26 -50 0 84 -9 47 -19
123 -24 170 -6 71 -9 79 -15 51z"/>
<path d="M6497 6625 c-4 -10 -5 -39 -1 -64 7 -46 43 -155 49 -149 2 2 -6 55
-19 118 -15 76 -25 108 -29 95z"/>
<path d="M2920 6542 c19 -14 59 -50 88 -79 54 -54 69 -51 29 8 -29 43 -103 99
-130 99 -19 -1 -18 -4 13 -28z"/>
<path d="M7024 6531 c-49 -30 -84 -78 -84 -117 0 -19 2 -34 4 -34 2 0 19 24
36 53 18 28 44 64 58 79 32 35 26 43 -14 19z"/>
<path d="M2820 6513 c0 -3 13 -29 29 -57 34 -60 61 -145 61 -193 0 -20 4 -32
10 -28 14 8 13 114 -2 156 -14 44 -63 115 -83 122 -8 4 -15 4 -15 0z"/>
<path d="M7091 6473 c-47 -56 -77 -162 -51 -178 5 -3 12 7 16 22 18 80 26 102
54 146 35 56 24 62 -19 10z"/>
<path d="M4036 6445 c-51 -47 -21 -135 47 -135 48 0 74 41 67 105 -6 55 -69
72 -114 30z"/>
<path d="M4982 6397 c-26 -28 -52 -98 -52 -143 0 -20 9 -43 24 -61 21 -24 27
-26 52 -18 64 23 116 165 80 220 -22 33 -74 34 -104 2z"/>
<path d="M3450 6365 c0 -3 39 -31 86 -61 47 -31 127 -90 177 -130 51 -41 96
-74 100 -74 21 0 -63 86 -141 145 -95 72 -222 140 -222 120z"/>
<path d="M3347 6260 c-36 -11 -57 -28 -57 -47 0 -12 3 -12 22 1 33 24 101 20
156 -8 26 -13 79 -52 119 -85 41 -35 81 -61 94 -61 l22 0 -24 26 c-41 44 -152
130 -194 152 -51 25 -102 34 -138 22z"/>
<path d="M4507 6172 c-22 -25 -21 -75 1 -95 43 -39 115 -8 115 50 0 53 -81 84
-116 45z"/>
<path d="M3370 6075 c-23 -13 -19 -14 55 -14 74 0 78 1 55 14 -14 8 -38 14
-55 14 -16 0 -41 -6 -55 -14z"/>
<path d="M1170 5455 l0 -566 108 3 107 3 5 312 5 313 150 -290 150 -290 97 0
98 0 144 288 145 287 0 -178 1 -178 108 3 107 3 0 425 0 425 -106 3 -106 3
-193 -416 c-107 -228 -197 -412 -201 -407 -4 4 -94 185 -200 402 -106 217
-197 401 -202 408 -6 8 -42 12 -113 12 l-104 0 0 -565z"/>
<path d="M2852 6000 c-232 -61 -376 -248 -389 -506 -20 -366 227 -622 577
-601 241 15 423 168 485 406 21 80 21 237 0 316 -79 301 -367 465 -673 385z
m293 -212 c111 -58 176 -166 183 -306 13 -244 -132 -404 -352 -390 -127 9
-230 85 -278 207 -29 74 -31 221 -4 296 55 151 170 229 326 222 56 -3 88 -10
125 -29z"/>
<path d="M2955 5548 c-37 -20 -55 -52 -55 -96 0 -90 99 -135 168 -77 38 32 48
72 28 118 -23 56 -92 82 -141 55z"/>
<path d="M4011 6004 c-100 -21 -168 -60 -247 -138 -137 -137 -192 -336 -149
-541 45 -217 199 -377 403 -421 307 -65 581 105 653 406 17 71 17 219 0 290
-73 303 -349 472 -660 404z m274 -214 c174 -84 241 -328 144 -527 -58 -119
-163 -178 -304 -171 -129 7 -218 67 -271 183 -78 170 -36 383 95 482 88 67
235 82 336 33z"/>
<path d="M4104 5551 c-56 -24 -79 -94 -49 -151 19 -36 43 -50 90 -50 128 0
141 189 14 205 -19 3 -44 1 -55 -4z"/>
<path d="M4747 6014 c-4 -4 -7 -198 -7 -431 l0 -423 110 0 110 0 0 237 0 236
258 -369 257 -369 108 -3 107 -3 0 566 0 565 -105 0 -105 0 0 -372 c0 -283 -3
-369 -12 -360 -6 6 -124 172 -262 369 l-251 358 -101 3 c-55 1 -103 0 -107 -4z"/>
<path d="M5977 6001 c-131 -43 -222 -156 -234 -290 -17 -190 104 -323 319
-352 83 -10 123 -30 148 -72 50 -81 8 -167 -92 -191 l-28 -6 0 -102 0 -101 48
7 c96 13 144 36 209 101 69 69 93 127 93 225 0 187 -116 305 -329 334 -82 11
-96 16 -124 44 -28 29 -32 39 -32 87 0 46 4 58 30 85 76 79 221 50 241 -49 l7
-31 104 0 105 0 -6 48 c-16 108 -87 201 -193 249 -75 34 -187 40 -266 14z"/>
<path d="M6899 5993 c-5 -15 -102 -265 -215 -556 -112 -290 -204 -532 -204
-537 0 -6 45 -10 109 -10 l109 0 20 58 c73 216 195 558 201 564 3 4 56 -133
116 -305 l110 -312 109 -3 109 -3 -6 28 c-12 56 -423 1097 -435 1101 -6 2 -17
-9 -23 -25z"/>
<path d="M7410 5455 l0 -566 108 3 107 3 5 312 5 313 150 -290 150 -290 97 0
98 0 144 288 145 287 0 -178 1 -178 108 3 107 3 0 425 0 425 -106 3 -106 3
-193 -416 c-107 -228 -197 -412 -201 -407 -4 4 -94 185 -200 402 -106 217
-197 401 -202 408 -6 8 -42 12 -113 12 l-104 0 0 -565z"/>
<path d="M9119 5993 c-5 -15 -102 -265 -215 -556 -112 -290 -204 -532 -204
-537 0 -6 45 -10 109 -10 l109 0 20 58 c73 216 195 558 201 564 3 4 56 -133
116 -305 l110 -312 109 -3 109 -3 -6 28 c-12 56 -423 1097 -435 1101 -6 2 -17
-9 -23 -25z"/>
<path d="M2393 4703 c3 -21 11 -133 16 -248 12 -240 26 -307 78 -383 59 -87
154 -146 355 -221 l98 -37 61 -90 c91 -134 195 -258 308 -367 l101 -98 0 -97
c0 -175 39 -264 154 -349 60 -45 1081 -558 1160 -583 63 -20 159 -7 253 33
137 60 243 127 321 203 l74 71 121 7 c445 25 827 129 1232 334 150 77 381 223
474 301 l48 41 119 -1 c176 -1 231 24 309 141 49 74 427 708 486 816 80 146
113 295 98 446 -13 131 20 118 -282 118 l-262 0 -18 -45 c-43 -105 -129 -180
-342 -300 -162 -91 -221 -132 -281 -197 -62 -65 -83 -105 -118 -219 -36 -118
-57 -146 -146 -194 -104 -56 -117 -82 -129 -275 -13 -207 -53 -302 -182 -431
-151 -153 -354 -212 -724 -212 -335 -1 -569 55 -926 218 -156 72 -186 72 -371
11 -160 -54 -275 -71 -413 -62 -196 13 -441 64 -567 118 l-48 20 0 58 c0 65
-21 143 -46 171 -24 27 -37 13 -19 -21 42 -81 -3 -50 -133 93 -84 91 -242 295
-242 311 0 3 14 6 30 6 34 0 39 14 12 29 -10 5 -81 33 -158 62 -219 81 -307
132 -364 211 -48 66 -59 123 -71 353 -13 264 -17 289 -48 293 -22 3 -23 1 -18
-35z"/>
<path d="M2506 4708 c27 -149 97 -385 140 -470 21 -40 22 -53 15 -95 -12 -61
3 -80 24 -30 40 97 62 423 38 572 l-8 50 -107 3 -108 3 6 -33z"/>
<path d="M2820 4710 c0 -16 5 -30 10 -30 6 0 10 6 10 14 0 8 3 21 6 30 4 11 1
16 -10 16 -11 0 -16 -9 -16 -30z"/>
<path d="M4105 4689 c62 -30 151 -62 234 -85 169 -45 233 -77 300 -149 62 -69
111 -169 181 -370 29 -82 56 -157 61 -165 39 -67 -75 339 -121 434 -87 175
-164 225 -468 310 -52 15 -117 37 -146 51 -33 16 -69 25 -97 24 l-44 0 100
-50z"/>
<path d="M4342 4729 c9 -5 68 -21 130 -34 190 -42 261 -102 368 -307 33 -62
60 -110 60 -107 1 21 -38 125 -68 183 -74 142 -177 222 -327 256 -98 21 -193
27 -163 9z"/>
<path d="M5090 4735 c0 -3 30 -40 66 -83 60 -69 124 -178 124 -209 0 -7 12
-49 26 -93 29 -93 74 -152 130 -170 32 -11 66 -3 36 8 -27 9 -84 66 -102 102
-10 20 -31 79 -45 131 -15 52 -38 113 -52 137 -39 69 -142 182 -163 182 -11 0
-20 -2 -20 -5z"/>
<path d="M5334 4716 c9 -14 40 -79 70 -146 90 -204 134 -249 293 -300 109 -35
170 -37 233 -9 100 44 704 397 748 436 l47 42 -31 1 c-18 0 -46 -11 -70 -29
-21 -16 -131 -81 -244 -146 -113 -65 -252 -146 -310 -180 -58 -35 -126 -73
-151 -85 l-46 -23 -62 33 c-77 41 -153 123 -179 193 -11 28 -25 86 -31 127
-19 121 -4 110 -153 110 l-130 0 16 -24z"/>
<path d="M6862 4696 c-34 -47 -114 -114 -222 -186 -103 -69 -194 -140 -180
-140 21 0 157 77 245 138 88 62 186 156 210 202 15 28 14 30 -3 30 -11 0 -32
-19 -50 -44z"/>
<path d="M7080 4727 c0 -8 9 -22 20 -32 25 -23 79 -14 117 20 l28 24 -82 1
c-63 0 -83 -3 -83 -13z"/>
<path d="M3700 4639 c-66 -11 -206 -78 -242 -116 -37 -41 -81 -109 -120 -188
-73 -145 -72 -172 3 -270 27 -35 75 -117 106 -180 95 -195 141 -227 348 -240
142 -9 241 -22 390 -52 179 -37 270 -36 353 1 108 50 222 197 222 287 0 21
-16 81 -35 134 -96 265 -174 346 -480 495 -251 123 -385 155 -545 129z m322
-80 c94 -32 336 -150 408 -199 88 -60 143 -120 189 -210 49 -93 101 -232 101
-267 0 -39 -39 -110 -94 -170 -99 -109 -190 -126 -412 -80 l-111 23 -70 64
c-48 44 -81 85 -101 125 -33 66 -56 87 -153 135 -92 47 -125 75 -154 133 -76
153 14 340 207 432 85 41 106 42 190 14z"/>
<path d="M3314 4545 c-103 -122 -158 -257 -158 -385 1 -112 29 -166 156 -299
57 -58 108 -115 115 -126 12 -20 12 -20 12 1 1 29 -39 86 -120 171 -42 43 -79
93 -95 128 -24 51 -26 66 -22 154 3 90 7 104 46 186 24 49 59 115 79 148 19
32 33 60 30 63 -3 3 -22 -15 -43 -41z"/>
<path d="M6865 4544 c-61 -56 -213 -164 -320 -229 -95 -58 -89 -54 -84 -59 9
-9 166 73 234 121 80 57 201 166 216 194 13 26 11 25 -46 -27z"/>
<path d="M6101 4171 c-42 -39 -55 -76 -39 -109 38 -76 189 -35 188 52 -1 78
-89 113 -149 57z"/>
<path d="M6657 4068 c-76 -55 -136 -103 -133 -105 16 -16 286 171 286 198 0
17 -15 8 -153 -93z"/>
<path d="M6739 4022 c-92 -54 -146 -92 -130 -92 19 0 111 47 150 78 19 15 39
30 45 34 6 4 8 9 5 12 -3 3 -34 -11 -70 -32z"/>
<path d="M5303 4030 c-30 -12 -56 -55 -56 -92 0 -37 50 -88 87 -88 53 0 121
97 103 144 -11 29 -96 52 -134 36z"/>
<path d="M5738 3821 c-169 -37 -333 -127 -459 -253 -127 -126 -161 -247 -100
-354 67 -116 197 -168 551 -220 159 -23 386 -16 485 16 96 31 140 54 196 107
70 66 90 125 97 285 8 211 -15 254 -186 338 -135 67 -227 90 -377 96 -93 3
-139 0 -207 -15z m371 -271 c169 -15 273 -47 349 -108 23 -18 23 -21 13 -94
-15 -107 -35 -151 -96 -206 -95 -87 -259 -128 -470 -119 -140 6 -429 49 -507
76 -53 18 -53 19 -52 59 2 104 126 256 264 324 137 66 286 87 499 68z"/>
<path d="M4608 3524 c-29 -9 -29 -34 2 -79 59 -85 104 -103 166 -65 36 23 49
49 39 79 -9 31 -160 78 -207 65z"/>
<path d="M3780 3489 c13 -6 99 -27 191 -49 92 -21 185 -48 207 -59 22 -11 65
-50 97 -86 32 -36 62 -65 67 -65 16 0 -35 83 -82 131 -54 56 -112 79 -284 114
-126 26 -247 34 -196 14z"/>
<path d="M4253 3454 c-28 -12 -10 -22 53 -29 87 -9 135 -27 212 -77 65 -42 82
-45 63 -9 -17 30 -73 70 -133 92 -52 20 -171 34 -195 23z"/>
</g>
</svg>
